<?xml version="1.0" encoding="utf-8" ?><svg xmlns="http://www.w3.org/2000/svg" xmlns:xlink="http://www.w3.org/1999/xlink" width="697" height="462" viewBox="0 0 697 462"><clipPath id="cl_3"><rect x="6.1035156e-05" width="696.61542" height="461.53845"/></clipPath><g clip-path="url(#cl_3)"><path transform="matrix(1.23077 0 0 1.23077 -422.154 -260.923)" d="M620.07 243.918C623.28 243.686 627.545 243.59 630.63 244.473C650.741 250.225 670.895 256.299 690.925 262.286L802.055 295.379L857.547 311.721C864.875 313.88 882.271 318.557 888.118 321.713C891.047 323.32 893.191 326.058 894.048 329.288C899.112 347.958 855.173 352.334 842.365 355.27C841.769 362.116 840.204 371.045 839.299 378.092L834.259 420.04C834.417 420.075 834.575 420.11 834.733 420.144L835.52 420.332C842.376 421.923 852.634 426.92 848.26 435.857C845.371 441.759 838.218 443.592 832.458 445.507C843.432 449.512 849.031 450.766 852.232 463.063C856.62 480.686 862.507 499.093 865.352 516.976C871.064 552.875 800.276 554.518 802.808 518.75C803.368 510.843 805.382 503.26 807.179 495.519C809.716 484.586 811.823 473.429 815.004 462.667C818.134 452.045 822.163 450.196 831.148 445.576C828.572 444.82 824.551 443.903 822.223 442.814C805.025 434.765 811.477 424.965 825.574 420.128C824.025 412.523 822.729 403.464 821.285 395.655C819.388 384.381 816.826 373.238 815.05 361.965C771.91 371.596 727.012 383.172 683.887 393.701C673.892 396.123 663.913 398.611 653.95 401.162C639.812 404.773 627.19 409.049 612.474 405.527C597.848 402.025 583.311 398.17 568.69 394.669L450.618 366.285L393.91 352.826C390.465 352.011 387.228 351.196 383.461 350.358C371.942 347.798 345.344 343.593 355.575 325.657C356.715 323.659 360.019 321.041 362.289 320.302C377.256 315.43 392.431 311.119 407.538 306.681L488.963 282.516L568.924 258.515C584.627 253.774 604.24 247.295 620.07 243.918ZM830.598 364.677C838.298 357.385 836.655 342.148 828.244 338.822C814.848 333.523 795.135 329.655 781.21 326.256L714.67 309.712L664.843 297.172C654.485 294.596 642.243 291.104 631.858 290.151C628.737 292.99 623.89 298.149 629.452 301.81C638.421 307.715 652.445 309.898 663.048 312.462C711.516 324.183 759.958 336.347 808.496 347.748C827.46 352.202 814.879 364.574 830.598 364.677Z"/><path transform="matrix(1.23077 0 0 1.23077 -422.154 -260.923)" d="M449.558 384.052C459.542 383.99 489.164 392.305 500.417 395.072L587.41 416.482C594.981 418.381 616.336 424.699 622.765 424.328C635.249 423.609 655.022 417.662 667.686 414.545L754.216 393.246C762.693 391.142 777.424 386.736 785.615 386.75C795.187 386.767 796.768 419.854 798.141 426.807C799.856 435.493 801.864 446.931 802.646 455.505C803.029 459.543 803.023 463.608 802.63 467.645C801.277 480.237 789.588 489.796 780.371 497.314C778.57 498.619 776.726 499.864 774.842 501.047C707.267 543.775 607.843 545.627 530.625 529.129C504.661 523.582 432.214 499.748 431.619 462.667C431.322 444.207 440.559 414.931 441.981 395.031C442.303 390.519 445.756 386.391 449.558 384.052ZM702.307 474.057C714.825 472.952 724.071 461.896 722.948 449.377C721.825 436.858 710.759 427.626 698.244 428.767C685.755 429.906 676.548 440.948 677.669 453.441C678.79 465.935 689.815 475.16 702.307 474.057ZM549.985 473.854C558.067 472.358 564.709 466.609 567.35 458.824C569.991 451.038 568.218 442.433 562.714 436.326C557.211 430.22 548.837 427.566 540.822 429.388C528.773 432.128 521.127 444.006 523.622 456.112C526.116 468.218 537.834 476.104 549.985 473.854ZM643.122 486.023C649.704 476.721 650.234 471.768 650.762 460.575C635.77 459.85 612.623 459.828 597.565 460.332C597.614 462.334 597.663 464.326 597.798 466.324C599.42 490.357 624.643 504.219 643.122 486.023Z"/></g></svg>